<?xml version="1.0" encoding="utf-8"?>
<!DOCTYPE svg PUBLIC "-//W3C//DTD SVG 1.1//EN" "http://www.w3.org/Graphics/SVG/1.1/DTD/svg11.dtd">
<svg version="1.1" id="Layer_1" xmlns="http://www.w3.org/2000/svg" xmlns:xlink="http://www.w3.org/1999/xlink" x="0px" y="0px"
	 width="1920px" height="400px" viewBox="0 0 1920 400" enable-background="new 0 0 1920 400" xml:space="preserve">
<path opacity="0.03" fill="#30AAE1" d="M261,400v-88.814c0-20.625-16.875-37.5-37.5-37.5h-15c-20.625,0-37.5,16.875-37.5,37.5V400
	H261z"/>
<path opacity="0.03" fill="#30AAE1" d="M561,400V91.171c0-20.625-16.875-37.5-37.5-37.5h-15c-20.625,0-37.5,16.875-37.5,37.5V400
	H561z"/>
<path opacity="0.03" fill="#30AAE1" d="M741,400V285.186c0-20.625-16.875-37.5-37.5-37.5h-15c-20.625,0-37.5,16.875-37.5,37.5V400
	H741z"/>
<path opacity="0.03" fill="#30AAE1" d="M1266,400V259.186c0-20.625-16.875-37.5-37.5-37.5h-15c-20.625,0-37.5,16.875-37.5,37.5V400
	H1266z"/>
<path opacity="0.03" fill="#30AAE1" d="M981,400V259.186c0-20.625-16.875-37.5-37.5-37.5h-15c-20.625,0-37.5,16.875-37.5,37.5V400
	H981z"/>
<path opacity="0.03" fill="#30AAE1" d="M1551,400V293.186c0-20.625-16.875-37.5-37.5-37.5h-15c-20.625,0-37.5,16.875-37.5,37.5V400
	H1551z"/>
<path opacity="0.03" fill="#30AAE1" d="M1881,400v-63.481c0-20.625-16.875-37.5-37.5-37.5h-15c-20.625,0-37.5,16.875-37.5,37.5V400
	H1881z"/>
<path opacity="0.03" fill="#1F71B8" d="M696,400V201.58c0-27.5-22.5-50-50-50h-20c-27.5,0-50,22.5-50,50V400H696z"/>
<path opacity="0.03" fill="#30AAE1" d="M786,400V141.58c0-27.5-22.5-50-50-50h-20c-27.5,0-50,22.5-50,50V400H786z"/>
<path opacity="0.05" fill="#1F71B8" d="M876,400V161.58c0-27.5-22.5-50-50-50h-20c-27.5,0-50,22.5-50,50V400H876z"/>
<path opacity="0.03" fill="#1F71B8" d="M1056,400V181.58c0-27.5-22.5-50-50-50h-20c-27.5,0-50,22.5-50,50V400H1056z"/>
<path opacity="0.05" fill="#30AAE1" d="M1146,400V221.58c0-27.5-22.5-50-50-50h-20c-27.5,0-50,22.5-50,50V400H1146z"/>
<path opacity="0.03" fill="#676767" d="M1236,400V161.58c0-27.5-22.5-50-50-50h-20c-27.5,0-50,22.5-50,50V400H1236z"/>
<path opacity="0.03" fill="#676767" d="M1866,400V161.58c0-27.5-22.5-50-50-50h-20c-27.5,0-50,22.5-50,50V400H1866z"/>
<path opacity="0.03" fill="#30AAE1" d="M1326,400V201.58c0-27.5-22.5-50-50-50h-20c-27.5,0-50,22.5-50,50V400H1326z"/>
<path opacity="0.05" fill="#1F71B8" d="M1416,400V241.58c0-27.5-22.5-50-50-50h-20c-27.5,0-50,22.5-50,50V400H1416z"/>
<path opacity="0.03" fill="#30AAE1" d="M1506,400V201.58c0-27.5-22.5-50-50-50h-20c-27.5,0-50,22.5-50,50V400H1506z"/>
<path opacity="0.05" fill="#1F71B8" d="M1776,400V201.58c0-27.5-22.5-50-50-50h-20c-27.5,0-50,22.5-50,50V400H1776z"/>
<path opacity="0.03" fill="#1F71B8" d="M1596,400V241.58c0-27.5-22.5-50-50-50h-20c-27.5,0-50,22.5-50,50V400H1596z"/>
<path opacity="0.03" fill="#30AAE1" d="M1686,400V261.58c0-27.5-22.5-50-50-50h-20c-27.5,0-50,22.5-50,50V400H1686z"/>
<path opacity="0.03" fill="#30AAE1" d="M606,400V261.58c0-27.5-22.5-50-50-50h-20c-27.5,0-50,22.5-50,50V400H606z"/>
<path opacity="0.03" fill="#1F71B8" d="M516,400V161.58c0-27.5-22.5-50-50-50h-20c-27.5,0-50,22.5-50,50V400H516z"/>
<path opacity="0.03" fill="#1F71B8" d="M336,400V201.58c0-27.5-22.5-50-50-50h-20c-27.5,0-50,22.5-50,50V400H336z"/>
<path opacity="0.05" fill="#30AAE1" d="M426,400V221.58c0-27.5-22.5-50-50-50h-20c-27.5,0-50,22.5-50,50V400H426z"/>
<path opacity="0.03" fill="#30AAE1" d="M246,400V161.58c0-27.5-22.5-50-50-50h-20c-27.5,0-50,22.5-50,50V400H246z"/>
<path opacity="0.03" fill="#1F71B8" d="M156,400V201.58c0-27.5-22.5-50-50-50H86c-27.5,0-50,22.5-50,50V400H156z"/>
<path opacity="0.03" fill="#30AAE1" d="M966,400V221.58c0-27.5-22.5-50-50-50h-20c-27.5,0-50,22.5-50,50V400H966z"/>
<path opacity="0.05" fill="#30AAE1" d="M20,91.58H0V400h70V141.58C70,114.08,47.5,91.58,20,91.58z"/>
<path opacity="0.03" fill="#30AAE1" d="M1920,213.602c-4.448-1.307-9.144-2.021-14-2.021h-20c-27.5,0-50,22.5-50,50V400h84V213.602z
	"/>
</svg>
