<?xml version="1.0" encoding="utf-8"?>
<!-- Generator: Adobe Illustrator 16.0.0, SVG Export Plug-In . SVG Version: 6.00 Build 0)  -->
<!DOCTYPE svg PUBLIC "-//W3C//DTD SVG 1.1//EN" "http://www.w3.org/Graphics/SVG/1.1/DTD/svg11.dtd">
<svg version="1.1" id="Layer_1" xmlns="http://www.w3.org/2000/svg" xmlns:xlink="http://www.w3.org/1999/xlink" x="0px" y="0px"
	 width="48.105px" height="48.105px" viewBox="0 0 48.105 48.105" enable-background="new 0 0 48.105 48.105" xml:space="preserve">
<linearGradient id="SVGID_1_" gradientUnits="userSpaceOnUse" x1="0" y1="24.0522" x2="48.1055" y2="24.0522">
	<stop  offset="0" style="stop-color:#1F71B8"/>
	<stop  offset="1" style="stop-color:#46ABE1"/>
</linearGradient>
<path fill="url(#SVGID_1_)" d="M13.049,45.439C5.302,41.443,0,33.369,0,24.053C0,10.769,10.769,0,24.053,0
	c0.57,0,1.135,0.026,1.695,0.065l-1.661,5.937C24.076,6.002,24.064,6,24.053,6C14.099,6,6,14.098,6,24.053
	c0,6.535,3.503,12.253,8.719,15.421L13.049,45.439z M35.072,2.675l-1.658,5.972c5.201,3.172,8.691,8.881,8.691,15.406
	c0,9.929-8.062,18.011-17.983,18.048l-1.651,5.945c0.523,0.035,1.05,0.059,1.582,0.059c13.283,0,24.053-10.77,24.053-24.052
	C48.105,14.742,42.812,6.672,35.072,2.675z"/>
<g>
</g>
<g>
</g>
<g>
</g>
<g>
</g>
<g>
</g>
<g>
</g>
</svg>
