<?xml version="1.0" encoding="UTF-8" standalone="no"?><svg aria-hidden="true" focusable="false" role="img" xmlns="http://www.w3.org/2000/svg" viewBox="0 0 512 512"><linearGradient id="degradat" x2="1" y2="1"><stop offset="0%" stop-color="#2daae1" /><stop offset="100%" stop-color="#1d70b7" /></linearGradient><path fill="url(#degradat)" d="M 247.59961 8 C 104.69961 8 7.5791225e-14 123.1 0 256 C -1.8947806e-14 394.5 113.59961 504 247.59961 504 C 377.49961 504 496 403.1 496 256 C 496 208.39817 483.29164 164.11304 460.82422 126.52148 A 75 75 0 0 0 469.42578 91.728516 A 75 75 0 0 0 394.42578 16.728516 A 75 75 0 0 0 352.0293 29.865234 C 320.6128 15.808291 285.35459 8 247.59961 8 z M 430.85547 52.65625 C 437.79977 52.55805 443.53522 58.158786 443.48242 65.103516 C 443.25312 71.094016 440.01838 72.827804 436.55078 77.552734 L 392.23242 128.83594 C 387.10103 134.77191 377.82485 134.53972 372.99805 128.35352 L 346.23047 94.037109 C 341.87707 88.622149 342.79679 80.691009 348.27539 76.417969 C 353.75399 72.144939 361.67158 73.183519 365.86328 78.724609 L 383.30469 101.08789 L 421.43555 56.964844 L 421.50391 57.113281 C 423.82551 54.339701 427.23887 52.71315 430.85547 52.65625 z M 248.40039 52.699219 C 275.06813 52.699219 300.4808 57.726194 323.74219 66.900391 A 75 75 0 0 0 319.42578 91.728516 A 75 75 0 0 0 394.42578 166.72852 A 75 75 0 0 0 428.92188 158.25195 A 75 75 0 0 1 427.24414 159.10547 C 442.56374 187.77379 451.23022 220.71647 451.19922 256 C 451.19922 377.7 351.60039 458.80078 248.40039 458.80078 C 135.90039 458.80078 44.699219 365.8 44.699219 256 C 44.699219 150.6 130.20039 52.699219 248.40039 52.699219 z M 260.60547 127.32227 C 193.88128 127.32227 153.09322 156.68568 138.24023 215.41211 L 119.56055 215.41211 L 111.50586 246.60352 L 134.29883 246.60352 C 134.07032 248.66008 133.95508 251.97282 133.95508 256.54297 C 133.95508 260.88461 134.07032 263.91315 134.29883 265.62695 L 115.44727 265.62695 L 107.2207 296.81836 L 138.24023 296.81836 C 142.58188 319.78336 154.5212 340.57586 174.05859 359.19922 C 193.59598 377.82258 223.76024 387.13477 264.54883 387.13477 C 289.79891 387.13477 311.33462 381.02203 329.1582 368.79688 L 329.1582 304.87305 C 307.6785 320.86857 284.59873 328.86523 259.91992 328.86523 C 237.41193 328.86523 222.78785 318.18381 216.04688 296.81836 L 267.97461 296.81836 L 275.3457 265.62695 L 211.5918 265.62695 L 211.5918 256.54297 C 211.5918 252.20133 211.70509 248.88859 211.93359 246.60352 L 272.25977 246.60352 L 279.62891 215.41211 L 217.93164 215.41211 C 225.7009 195.53196 240.66876 185.5918 262.83398 185.5918 C 279.74354 185.5918 295.96735 192.73195 311.50586 207.01367 L 326.92969 144.80273 C 304.53595 133.14885 282.42793 127.32227 260.60547 127.32227 z " /></svg>