<svg xmlns="http://www.w3.org/2000/svg" style="display:none;">

 <symbol id="esborrar" viewBox="0 0 448 512">
 	<desc>esborrar elements</desc>
 	<path d="M268 416h24a12 12 0 0 0 12-12V188a12 12 0 0 0-12-12h-24a12 12 0 0 0-12 12v216a12 12 0 0 0 12 12zM432 80h-82.41l-34-56.7A48 48 0 0 0 274.41 0H173.59a48 48 0 0 0-41.16 23.3L98.41 80H16A16 16 0 0 0 0 96v16a16 16 0 0 0 16 16h16v336a48 48 0 0 0 48 48h288a48 48 0 0 0 48-48V128h16a16 16 0 0 0 16-16V96a16 16 0 0 0-16-16zM171.84 50.91A6 6 0 0 1 177 48h94a6 6 0 0 1 5.15 2.91L293.61 80H154.39zM368 464H80V128h288zm-212-48h24a12 12 0 0 0 12-12V188a12 12 0 0 0-12-12h-24a12 12 0 0 0-12 12v216a12 12 0 0 0 12 12z" />
</symbol>

<symbol id="editar" viewBox="0 0 18.207 18.285">
	<desc>editar elements</desc>
	<path d="M17.466,0.616l-0.021-0.021C17.022,0.212,16.478,0,15.908,0c-0.64,0-1.253,0.271-1.683,0.741L6.083,9.656 c-0.075,0.081-0.131,0.177-0.165,0.28L4.96,12.808c-0.11,0.331-0.056,0.698,0.148,0.981c0.205,0.285,0.536,0.455,0.885,0.455l0,0 c0.15,0,0.298-0.031,0.438-0.092l2.771-1.213c0.102-0.044,0.191-0.108,0.266-0.189l8.143-8.915 C18.459,2.907,18.394,1.464,17.466,0.616z M6.794,12.276l0.562-1.684l0.048-0.052l1.065,0.973L8.42,11.565L6.794,12.276z M16.45,2.774l-6.921,7.578L8.464,9.38l6.922-7.578c0.135-0.148,0.32-0.229,0.522-0.229c0.176,0,0.345,0.065,0.476,0.185 l0.021,0.02C16.692,2.039,16.714,2.487,16.45,2.774z"/> <path d="M15.886,7.253c-0.435,0-0.786,0.352-0.786,0.787v6.674c0,1.102-0.896,2-1.999,2H3.572c-1.104,0-2-0.898-2-2 V5.263c0-1.103,0.896-1.999,2-1.999h6.896c0.434,0,0.787-0.353,0.787-0.787S10.902,1.69,10.469,1.69H3.572 C1.602,1.69,0,3.293,0,5.263v9.451c0,1.969,1.602,3.571,3.572,3.571h9.528c1.969,0,3.571-1.603,3.571-3.571V8.04 C16.672,7.604,16.32,7.253,15.886,7.253z"/>
</symbol>

</svg>