<?xml version="1.0" encoding="utf-8"?>
<!-- Generator: Adobe Illustrator 16.0.0, SVG Export Plug-In . SVG Version: 6.00 Build 0)  -->
<!DOCTYPE svg PUBLIC "-//W3C//DTD SVG 1.1//EN" "http://www.w3.org/Graphics/SVG/1.1/DTD/svg11.dtd">
<svg version="1.1" id="Layer_1" xmlns="http://www.w3.org/2000/svg" xmlns:xlink="http://www.w3.org/1999/xlink" x="0px" y="0px"
	 width="211.646px" height="48.105px" viewBox="0 0 211.646 48.105" enable-background="new 0 0 211.646 48.105"
	 xml:space="preserve">
<path fill="#FFFFFF" d="M29.641,44.656v2.449H0C0.515,38.793,7.088,34.219,13.596,29.9c6.444-4.316,12.888-8.441,12.888-15.916
	c0-6.057-5.155-9.988-10.954-9.988C7.41,3.996,3.544,9.99,3.544,17.658H1.095C1.61,7.025,6.443,1.871,15.143,1.871
	c7.539,0,13.79,3.994,13.79,12.178c0,7.797-6.122,12.695-12.501,16.947c-6.38,4.254-12.888,8.184-13.339,13.66H29.641z
	 M29.062,1.098h2.9l11.985,42.979h0.129L56.255,1.098h3.544l12.372,42.979H72.3L84.092,1.098h3.028L73.91,47.105h-3.222
	L58.059,3.545H57.93L45.493,47.105h-3.157L29.062,1.098z M136.898,1.098h19.203c8.055,0,14.562,2.963,14.562,11.855
	c0,6.188-3.737,10.762-9.859,11.793v0.129c6.831,0.773,8.506,5.09,8.957,9.859c0.451,4.768-0.322,9.922,1.547,12.371h-3.157
	c-1.74-3.156-0.709-8.441-1.225-12.887c-0.58-4.447-2.771-8.055-10.825-8.055h-16.367v20.941h-2.836V1.098z M156.102,23.715
	c6.701,0,11.728-3.158,11.728-10.568c0-6.959-5.542-9.602-11.728-9.602h-16.367v20.17H156.102z M174.917,1.098h2.836V27.58
	l28.933-26.482h3.673l-21.007,19.137l22.295,26.871h-3.544l-20.813-24.938l-9.536,8.699v16.238h-2.836V1.098z M100.326,39.475
	c-5.216-3.168-8.719-8.887-8.719-15.422C91.607,14.098,99.706,6,109.66,6c0.012,0,0.022,0.002,0.034,0.002l1.661-5.938
	C110.795,0.025,110.23,0,109.66,0C96.376,0,85.607,10.768,85.607,24.053c0,9.316,5.302,17.391,13.049,21.385L100.326,39.475z
	 M120.68,2.674l-1.658,5.973c5.2,3.172,8.691,8.881,8.691,15.406c0,9.93-8.062,18.01-17.983,18.049l-1.651,5.945
	c0.523,0.035,1.05,0.059,1.582,0.059c13.283,0,24.053-10.77,24.053-24.053C133.713,14.742,128.419,6.672,120.68,2.674z"/>
</svg>
