<?xml version="1.0" encoding="UTF-8" standalone="no"?><svg aria-hidden="true" focusable="false" role="img" xmlns="http://www.w3.org/2000/svg" viewBox="0 0 512 512"><linearGradient id="degradat" x2="1" y2="1"><stop offset="0%" stop-color="#2daae1" /><stop offset="100%" stop-color="#1d70b7" /></linearGradient><path fill="url(#degradat)" d="M 505,476.7 476.7,505 c -9.4,9.4 -24.6,9.4 -33.9,0 L 343,405.3 c -4.5,-4.5 -7,-10.6 -7,-17 L 336,372 C 300.7,399.6 256.3,416 208,416 93.1,416 0,322.9 0,208 0,93.1 93.1,0 208,0 c 114.9,0 208,93.1 208,208 0,48.3 -16.4,92.7 -44,128 l 16.3,0 c 6.4,0 12.5,2.5 17,7 l 99.7,99.7 c 9.3,9.4 9.3,24.6 0,34 z M 344,208 C 344,132.8 283.2,72 208,72 132.8,72 72,132.8 72,208 c 0,75.2 60.8,136 136,136 75.2,0 136,-60.8 136,-136 z" /><path fill="url(#degradat)" d="m 276.62305,134.2207 c -7.26283,0.11419 -14.11697,3.38123 -18.7793,8.95118 l -0.13672,-0.29688 -76.57422,88.60742 -35.02929,-44.91015 c -8.41777,-11.12757 -24.31437,-13.21205 -35.31649,-4.63099 -11.002122,8.58107 -12.851805,24.5067 -4.1093,35.38099 l 53.75391,68.91406 c 9.69312,12.42317 28.32207,12.89131 38.62695,0.9707 l 89,-102.98633 c 6.96366,-9.48863 13.46008,-12.96988 13.92051,-25 0.10593,-13.94638 -11.41065,-25.19722 -25.35605,-25 z "/></svg>